<svg width="220" height="77" viewBox="0 0 220 77" fill="none" xmlns="http://www.w3.org/2000/svg">
<path d="M17.6 48.8C17.1 48.8 16.7 48.7 16.3 48.7C20 46.5 21.8 43.8 21.8 40.5C21.7 37.3 21.4 33.8 20.9 30.1C20.3 25.6 16.5 23.2 9.6 22.9L0 23L2 76.5L3.4 76.6C5.8 76.8 8.1 76.9 10.1 76.9C19.9 76.9 25.2 74.3 25.9 69.1C26.7 63.4 26.5 58.8 25.4 55.4C24.5 52.7 22.8 49.3 17.6 48.8ZM10.1 48.1L9.9 48.2V51L10.1 51.1C11.2 51.5 12.4 51.6 14.6 51.8H15C15.6 51.9 16.3 51.9 17.2 52C20.4 52.3 21.5 53.9 22.4 56.6C23.3 59.5 23.5 63.6 22.7 68.8C22.1 73 15.4 73.8 9.9 73.8C8.4 73.8 6.7 73.7 4.9 73.6L3.3 26.1L9.6 26C14.7 26.2 17.4 27.7 17.7 30.5C18.2 34.1 18.5 37.4 18.5 40.5C18.6 42.6 17.7 45.2 10.1 48.1Z" fill="#BA9535"/>
<path d="M135.4 49.6C134.9 49.5 134.5 49.5 134.1 49.4C137.8 47.3 139.6 44.8 139.7 41.6C139.7 38.5 139.6 35 139.2 31.4C138.7 27 135.1 24.5 128.4 24L119 23.8L119.3 75.8V76.1L120.7 76.3C123.7 76.7 126.4 76.8 128.8 76.8C137.4 76.8 142.1 74.4 142.9 69.7C143.8 64.2 143.8 59.7 142.9 56.4C142 53.6 140.4 50.3 135.4 49.6ZM122.1 27.1L128.2 27.2C133.2 27.6 135.7 29.1 136 31.8C136.4 35.3 136.6 38.6 136.5 41.6C136.5 43.6 135.5 46.1 128 48.7L127.8 48.8V51.6L128 51.7C129.1 52.1 130.2 52.2 132.4 52.5C133.1 52.6 134 52.7 135 52.8C138.1 53.2 139.1 54.8 139.9 57.4C140.7 60.3 140.7 64.3 139.9 69.3C139.4 72.3 135.6 73.8 128.8 73.8C126.9 73.8 124.8 73.7 122.5 73.4L122.1 27.1Z" fill="#BA9535"/>
<path d="M61.1999 25.1L57.9999 25.2V26.2C57.9999 26.5 59.2999 61.6 59.3999 67.9C59.4999 71.2 57.6999 71.8 51.8999 72.2H51.4999C50.5999 72.3 49.5999 72.3 48.6999 72.1C47.0999 71.7 46.6999 69.7 46.4999 68.8V68.7C45.8999 65.9 45.7999 62.7 45.7999 59.7C45.7999 58.6 45.7999 57.5 45.6999 56.5L46.1999 25.3L42.9999 25.2L42.3999 56.3C42.3999 57.6 42.4999 58.7 42.4999 59.7C42.5999 62.6 42.5999 65 43.0999 69.1C43.7999 74.5 47.3999 75.2 49.9999 75.2C50.5999 75.2 51.0999 75.2 51.4999 75.1C51.6999 75.1 51.7999 75.1 51.9999 75.1C56.6999 74.9 62.4999 74.6 62.3999 67.9C62.2999 61.6 60.9999 26.5 60.9999 26.2L61.1999 25.1Z" fill="#BA9535"/>
<path d="M90.2998 51.9L89.7998 55L99.2998 56.5L99.6998 71.5C97.7998 71.8 94.1998 72.2 90.4998 72.2C88.5998 72.2 86.8998 72.1 85.3998 71.9C85.0998 71.9 82.0998 71 82.1998 55C82.2998 44.7 83.5998 33.7 83.7998 32.5C84.0998 29.8 89.9998 28.8 95.3998 28.8C96.9998 28.8 98.5998 28.9 99.8998 29L100.9 29.1L101.2 25.9L100.2 25.8C99.7998 25.8 97.8998 25.6 95.2998 25.6C88.9998 25.6 81.2998 26.7 80.5998 32.1C79.3998 42 75.9998 73.9 84.8998 75.1C86.5998 75.3 88.4998 75.5 90.5998 75.5C96.3998 75.5 101.5 74.5 101.7 74.5L103.1 74.2L102.5 53.8L90.2998 51.9Z" fill="#BA9535"/>
<path d="M160.7 74.2V75L180 75.6L180.1 72.6L163.7 72.1L163.3 63L175.1 61.8L174.8 58.7L163.2 59.9L162 29.8L180.8 30.4L180.9 27.3L158.8 26.7L160.7 74.2Z" fill="#BA9535"/>
<path d="M220 26.8L197.3 26.1L199.3 75.7L219.1 76.3L219.2 73.1L202.3 72.6L202 63.8L214.1 62.6L213.8 59.5L201.9 60.7L200.6 29.3L219.9 29.9L220 26.8Z" fill="#BA9535"/>
<path d="M98.1002 5.20001C97.0002 5.20001 96.2002 5.90001 96.2002 6.80001C96.2002 7.80001 97.0002 8.50001 98.2002 8.50001C99.3002 8.50001 100.2 7.80001 100.2 6.90001C100.1 6.10001 99.2002 5.30001 98.1002 5.20001Z" fill="#BA9535"/>
<path d="M125.2 15C127.6 14.4 129.4 13.3 130.8 10.9C132.4 8.1 133.2 6.4 133.9 3.7C134 3.3 133.7 2.8 133.3 2.8C130.2 2.6 119.3 2 114.9 1.7L90.9999 0.4C89.0999 0.3 85.4999 0 85.3999 0V1.3C85.5999 4.5 85.7999 7.2 86.5999 10.4C87.1999 12.4 87.9999 13.3 89.1999 13.9C91.3999 15 93.4999 15.1 95.1999 15.3C95.8999 15.4 96.5999 15.4 97.3999 15.4C98.0999 15.4 98.7999 15.4 99.4999 15.3C103.2 15 105.5 14.2 106.6 11.1C106.7 10.8 107.7 8.3 107.8 7.9C108.2 6.8 108.3 6.3 109 4.8C109.1 4.5 109.4 4.5 109.5 4.6C109.6 4.7 109.7 5 109.8 5.3C109.9 5.6 110.2 6.9 110.3 7.3C110.5 8.1 110.8 8.7 111.1 9.3C111.9 11 112.5 12 113 12.6C114.3 14.3 116.2 15.1 117.2 15.3C120.1 15.8 122.2 15.9 125.2 15ZM98.9999 11.2C98.2999 11.5 97.5999 11.6 96.8999 11.6C95.7999 11.6 94.6999 11.3 93.6999 10.6C92.2999 9.7 91.5999 8.4 91.5999 6.9C91.5999 5.4 92.4999 4.1 93.8999 3.3C94.7999 2.7 95.7999 2.5 96.7999 2.5C97.6999 2.5 98.5999 2.7 99.4999 3.2C101.1 4.1 102 5.4 102.1 6.9C101.9 9 100.9 10.5 98.9999 11.2ZM117.4 12.1C116 11.2 115.2 9.9 115.2 8.4C115.2 6.9 116.1 5.5 117.5 4.7C118.4 4.2 119.3 3.9 120.3 3.9C121.2 3.9 122.1 4.1 123 4.6C124.5 5.4 125.5 6.8 125.6 8.2C125.6 10.4 124.6 11.9 122.7 12.6C122 12.9 121.3 13 120.6 13C119.4 13 118.4 12.7 117.4 12.1Z" fill="#BA9535"/>
<path d="M119 6.10001C117.9 6.10001 117.1 6.80001 117 7.80001C117 8.80001 118 9.60001 119.1 9.60001C120.2 9.60001 120.9 8.90001 120.9 8.00001C120.9 6.90001 120 6.10001 119 6.10001Z" fill="#BA9535"/>
</svg>
